<mxfile host="app.diagrams.net" modified="2024-03-13T12:51:27.623Z" agent="Mozilla/5.0 (Windows NT 10.0; Win64; x64) AppleWebKit/537.36 (KHTML, like Gecko) Chrome/122.0.0.0 Safari/537.36" etag="xdwbyBDu_Oq43Rpmi0Bt" version="24.0.5" type="google">
  <diagram name="Page-1" id="CT01tc2iicJzlqW10Bmi">
    <mxGraphModel grid="1" page="1" gridSize="10" guides="1" tooltips="1" connect="1" arrows="1" fold="1" pageScale="1" pageWidth="850" pageHeight="1100" math="0" shadow="0">
      <root>
        <mxCell id="0" />
        <mxCell id="1" parent="0" />
        <mxCell id="jRAjvxgsXT9Yqj5ldLVh-49" value="" style="rounded=1;whiteSpace=wrap;html=1;fillColor=none;strokeColor=#3333FF;strokeWidth=4;" vertex="1" parent="1">
          <mxGeometry x="453" y="509" width="216" height="110" as="geometry" />
        </mxCell>
        <mxCell id="jRAjvxgsXT9Yqj5ldLVh-15" value="" style="edgeStyle=orthogonalEdgeStyle;rounded=0;orthogonalLoop=1;jettySize=auto;html=1;" edge="1" parent="1" source="jRAjvxgsXT9Yqj5ldLVh-1" target="jRAjvxgsXT9Yqj5ldLVh-2">
          <mxGeometry relative="1" as="geometry" />
        </mxCell>
        <mxCell id="jRAjvxgsXT9Yqj5ldLVh-1" value="&lt;b style=&quot;font-size: 15px;&quot;&gt;&lt;font style=&quot;font-size: 15px;&quot;&gt;Transcription From Whisper&lt;/font&gt;&lt;/b&gt;&lt;div style=&quot;font-size: 6px;&quot;&gt;&lt;font style=&quot;font-size: 6px;&quot;&gt;&lt;br&gt;&lt;/font&gt;&lt;/div&gt;&lt;div style=&quot;font-size: 15px;&quot;&gt;&lt;font style=&quot;font-size: 15px;&quot;&gt;எனக்கு ஜோடியாக இரண்டு கதாநாய்கள் நடிக்கிறார்கள்&lt;/font&gt;&lt;/div&gt;" style="text;html=1;align=center;verticalAlign=middle;whiteSpace=wrap;rounded=0;" vertex="1" parent="1">
          <mxGeometry x="284" y="70" width="270" height="70" as="geometry" />
        </mxCell>
        <mxCell id="jRAjvxgsXT9Yqj5ldLVh-22" style="edgeStyle=orthogonalEdgeStyle;rounded=0;orthogonalLoop=1;jettySize=auto;html=1;entryX=0;entryY=0.5;entryDx=0;entryDy=0;" edge="1" parent="1" source="jRAjvxgsXT9Yqj5ldLVh-2" target="jRAjvxgsXT9Yqj5ldLVh-21">
          <mxGeometry relative="1" as="geometry" />
        </mxCell>
        <mxCell id="jRAjvxgsXT9Yqj5ldLVh-27" style="edgeStyle=orthogonalEdgeStyle;rounded=0;orthogonalLoop=1;jettySize=auto;html=1;entryX=0.5;entryY=0;entryDx=0;entryDy=0;" edge="1" parent="1" source="jRAjvxgsXT9Yqj5ldLVh-2" target="jRAjvxgsXT9Yqj5ldLVh-23">
          <mxGeometry relative="1" as="geometry" />
        </mxCell>
        <mxCell id="jRAjvxgsXT9Yqj5ldLVh-2" value="&lt;font style=&quot;font-size: 15px;&quot;&gt;&lt;b&gt;Spell Checker&lt;/b&gt;&lt;/font&gt;" style="rounded=0;whiteSpace=wrap;html=1;" vertex="1" parent="1">
          <mxGeometry x="359" y="174" width="120" height="60" as="geometry" />
        </mxCell>
        <mxCell id="jRAjvxgsXT9Yqj5ldLVh-13" style="edgeStyle=orthogonalEdgeStyle;rounded=0;orthogonalLoop=1;jettySize=auto;html=1;entryX=0;entryY=0.5;entryDx=0;entryDy=0;exitX=0.5;exitY=0;exitDx=0;exitDy=0;exitPerimeter=0;" edge="1" parent="1" source="jRAjvxgsXT9Yqj5ldLVh-3" target="jRAjvxgsXT9Yqj5ldLVh-2">
          <mxGeometry relative="1" as="geometry" />
        </mxCell>
        <mxCell id="jRAjvxgsXT9Yqj5ldLVh-35" style="edgeStyle=orthogonalEdgeStyle;rounded=0;orthogonalLoop=1;jettySize=auto;html=1;entryX=0;entryY=0.5;entryDx=0;entryDy=0;exitX=0.5;exitY=1;exitDx=0;exitDy=0;exitPerimeter=0;" edge="1" parent="1" source="jRAjvxgsXT9Yqj5ldLVh-3" target="jRAjvxgsXT9Yqj5ldLVh-31">
          <mxGeometry relative="1" as="geometry" />
        </mxCell>
        <mxCell id="jRAjvxgsXT9Yqj5ldLVh-3" value="&lt;b&gt;Corpus&lt;/b&gt;" style="shape=cylinder3;whiteSpace=wrap;html=1;boundedLbl=1;backgroundOutline=1;size=15;" vertex="1" parent="1">
          <mxGeometry x="120" y="290" width="60" height="80" as="geometry" />
        </mxCell>
        <mxCell id="jRAjvxgsXT9Yqj5ldLVh-5" value="&lt;span style=&quot;font-size: 15px;&quot;&gt;எனக்கு&lt;/span&gt;" style="text;html=1;align=center;verticalAlign=middle;whiteSpace=wrap;rounded=0;" vertex="1" parent="1">
          <mxGeometry x="604" y="186" width="60" height="30" as="geometry" />
        </mxCell>
        <mxCell id="jRAjvxgsXT9Yqj5ldLVh-6" value="&lt;span style=&quot;font-size: 15px;&quot;&gt;ஜோடியாக&lt;/span&gt;" style="text;html=1;align=center;verticalAlign=middle;whiteSpace=wrap;rounded=0;" vertex="1" parent="1">
          <mxGeometry x="604" y="216" width="60" height="30" as="geometry" />
        </mxCell>
        <mxCell id="jRAjvxgsXT9Yqj5ldLVh-7" value="&lt;span style=&quot;font-size: 15px;&quot;&gt;இரண்டு&lt;/span&gt;" style="text;html=1;align=center;verticalAlign=middle;whiteSpace=wrap;rounded=0;" vertex="1" parent="1">
          <mxGeometry x="604" y="246" width="60" height="30" as="geometry" />
        </mxCell>
        <mxCell id="jRAjvxgsXT9Yqj5ldLVh-8" value="&lt;span style=&quot;font-size: 15px;&quot;&gt;&amp;nbsp;நடிக்கிறார்கள்&lt;/span&gt;" style="text;html=1;align=center;verticalAlign=middle;whiteSpace=wrap;rounded=0;" vertex="1" parent="1">
          <mxGeometry x="604" y="276" width="60" height="30" as="geometry" />
        </mxCell>
        <mxCell id="jRAjvxgsXT9Yqj5ldLVh-21" value="" style="rounded=1;whiteSpace=wrap;html=1;fillColor=none;strokeColor=#33FF33;strokeWidth=4;" vertex="1" parent="1">
          <mxGeometry x="550.5" y="148" width="165" height="164" as="geometry" />
        </mxCell>
        <mxCell id="jRAjvxgsXT9Yqj5ldLVh-12" value="&lt;b&gt;Correct Words&lt;/b&gt;" style="text;html=1;align=center;verticalAlign=middle;whiteSpace=wrap;rounded=0;" vertex="1" parent="1">
          <mxGeometry x="584" y="148.5" width="100" height="30" as="geometry" />
        </mxCell>
        <mxCell id="jRAjvxgsXT9Yqj5ldLVh-28" value="" style="group" connectable="0" vertex="1" parent="1">
          <mxGeometry x="337" y="280" width="165" height="80" as="geometry" />
        </mxCell>
        <mxCell id="jRAjvxgsXT9Yqj5ldLVh-23" value="" style="rounded=1;whiteSpace=wrap;html=1;fillColor=none;strokeColor=#FF0000;strokeWidth=4;" vertex="1" parent="jRAjvxgsXT9Yqj5ldLVh-28">
          <mxGeometry width="165" height="80" as="geometry" />
        </mxCell>
        <mxCell id="jRAjvxgsXT9Yqj5ldLVh-24" value="&lt;b&gt;Incorrect Words&lt;/b&gt;" style="text;html=1;align=center;verticalAlign=middle;whiteSpace=wrap;rounded=0;" vertex="1" parent="jRAjvxgsXT9Yqj5ldLVh-28">
          <mxGeometry x="32" width="100" height="30" as="geometry" />
        </mxCell>
        <mxCell id="jRAjvxgsXT9Yqj5ldLVh-25" value="&lt;span style=&quot;font-size: 15px;&quot;&gt;கதாநாய்கள்&lt;/span&gt;" style="text;html=1;align=center;verticalAlign=middle;whiteSpace=wrap;rounded=0;" vertex="1" parent="jRAjvxgsXT9Yqj5ldLVh-28">
          <mxGeometry x="52.5" y="40" width="60" height="30" as="geometry" />
        </mxCell>
        <mxCell id="jRAjvxgsXT9Yqj5ldLVh-31" value="&lt;font style=&quot;font-size: 15px;&quot;&gt;&lt;b&gt;Difflib&lt;/b&gt;&lt;/font&gt;" style="rounded=0;whiteSpace=wrap;html=1;" vertex="1" parent="1">
          <mxGeometry x="220" y="420" width="120" height="60" as="geometry" />
        </mxCell>
        <mxCell id="jRAjvxgsXT9Yqj5ldLVh-32" value="&lt;font style=&quot;font-size: 15px;&quot;&gt;&lt;b&gt;XLM-Roberta&lt;/b&gt;&lt;/font&gt;" style="rounded=0;whiteSpace=wrap;html=1;" vertex="1" parent="1">
          <mxGeometry x="500" y="420" width="120" height="60" as="geometry" />
        </mxCell>
        <mxCell id="jRAjvxgsXT9Yqj5ldLVh-33" style="edgeStyle=orthogonalEdgeStyle;rounded=0;orthogonalLoop=1;jettySize=auto;html=1;entryX=0.5;entryY=0;entryDx=0;entryDy=0;" edge="1" parent="1" source="jRAjvxgsXT9Yqj5ldLVh-23" target="jRAjvxgsXT9Yqj5ldLVh-31">
          <mxGeometry relative="1" as="geometry" />
        </mxCell>
        <mxCell id="jRAjvxgsXT9Yqj5ldLVh-40" value="&lt;b&gt;&lt;font style=&quot;font-size: 13px;&quot;&gt;Misspelled Word&lt;/font&gt;&lt;/b&gt;" style="edgeLabel;html=1;align=center;verticalAlign=middle;resizable=0;points=[];" connectable="0" vertex="1" parent="jRAjvxgsXT9Yqj5ldLVh-33">
          <mxGeometry x="0.0746" y="1" relative="1" as="geometry">
            <mxPoint x="5" y="-1" as="offset" />
          </mxGeometry>
        </mxCell>
        <mxCell id="jRAjvxgsXT9Yqj5ldLVh-34" style="edgeStyle=orthogonalEdgeStyle;rounded=0;orthogonalLoop=1;jettySize=auto;html=1;entryX=0.5;entryY=0;entryDx=0;entryDy=0;" edge="1" parent="1" source="jRAjvxgsXT9Yqj5ldLVh-23" target="jRAjvxgsXT9Yqj5ldLVh-32">
          <mxGeometry relative="1" as="geometry" />
        </mxCell>
        <mxCell id="jRAjvxgsXT9Yqj5ldLVh-41" value="&lt;b&gt;&lt;font style=&quot;font-size: 13px;&quot;&gt;Masked Sentence&lt;/font&gt;&lt;/b&gt;" style="edgeLabel;html=1;align=center;verticalAlign=middle;resizable=0;points=[];" connectable="0" vertex="1" parent="jRAjvxgsXT9Yqj5ldLVh-34">
          <mxGeometry x="0.044" y="1" relative="1" as="geometry">
            <mxPoint as="offset" />
          </mxGeometry>
        </mxCell>
        <mxCell id="jRAjvxgsXT9Yqj5ldLVh-46" value="" style="group" connectable="0" vertex="1" parent="1">
          <mxGeometry x="172" y="510" width="230" height="110" as="geometry" />
        </mxCell>
        <mxCell id="jRAjvxgsXT9Yqj5ldLVh-37" value="" style="rounded=1;whiteSpace=wrap;html=1;fillColor=none;strokeColor=#3333FF;strokeWidth=4;" vertex="1" parent="jRAjvxgsXT9Yqj5ldLVh-46">
          <mxGeometry width="216" height="110" as="geometry" />
        </mxCell>
        <mxCell id="jRAjvxgsXT9Yqj5ldLVh-45" value="&lt;p class=&quot;MsoNormal&quot;&gt;&lt;span style=&quot;font-family: Consolas; letter-spacing: 0pt;&quot;&gt;&lt;font style=&quot;font-size: 11px;&quot;&gt;கோநாய்கள்&lt;/font&gt;&lt;/span&gt;&lt;/p&gt;" style="text;html=1;align=center;verticalAlign=middle;whiteSpace=wrap;rounded=0;" vertex="1" parent="jRAjvxgsXT9Yqj5ldLVh-46">
          <mxGeometry x="83" y="76" width="60" height="30" as="geometry" />
        </mxCell>
        <mxCell id="jRAjvxgsXT9Yqj5ldLVh-38" value="&lt;b&gt;Closest Matches in corpus&lt;/b&gt;" style="text;html=1;align=center;verticalAlign=middle;whiteSpace=wrap;rounded=0;" vertex="1" parent="jRAjvxgsXT9Yqj5ldLVh-46">
          <mxGeometry x="25" width="167" height="30" as="geometry" />
        </mxCell>
        <mxCell id="jRAjvxgsXT9Yqj5ldLVh-39" value="&lt;p class=&quot;MsoNormal&quot;&gt;&lt;span style=&quot;font-family: Consolas; letter-spacing: 0pt;&quot;&gt;&lt;font style=&quot;font-size: 11px;&quot;&gt;கதாநாயகர்கள்&lt;/font&gt;&lt;/span&gt;&lt;/p&gt;" style="text;html=1;align=center;verticalAlign=middle;whiteSpace=wrap;rounded=0;" vertex="1" parent="jRAjvxgsXT9Yqj5ldLVh-46">
          <mxGeometry x="26" y="25" width="60" height="30" as="geometry" />
        </mxCell>
        <mxCell id="jRAjvxgsXT9Yqj5ldLVh-42" value="&lt;p class=&quot;MsoNormal&quot;&gt;&lt;font face=&quot;Consolas&quot;&gt;&lt;span style=&quot;font-size: 11px;&quot;&gt;கதாநாயகிகள்&lt;/span&gt;&lt;/font&gt;&lt;br&gt;&lt;/p&gt;" style="text;html=1;align=center;verticalAlign=middle;whiteSpace=wrap;rounded=0;" vertex="1" parent="jRAjvxgsXT9Yqj5ldLVh-46">
          <mxGeometry x="132" y="25" width="60" height="30" as="geometry" />
        </mxCell>
        <mxCell id="jRAjvxgsXT9Yqj5ldLVh-43" value="&lt;p class=&quot;MsoNormal&quot;&gt;&lt;span style=&quot;font-family: Consolas; letter-spacing: 0pt;&quot;&gt;&lt;font style=&quot;font-size: 11px;&quot;&gt;கதாநாயகர்&lt;/font&gt;&lt;/span&gt;&lt;/p&gt;" style="text;html=1;align=center;verticalAlign=middle;whiteSpace=wrap;rounded=0;" vertex="1" parent="jRAjvxgsXT9Yqj5ldLVh-46">
          <mxGeometry x="26" y="50" width="60" height="30" as="geometry" />
        </mxCell>
        <mxCell id="jRAjvxgsXT9Yqj5ldLVh-44" value="&lt;p class=&quot;MsoNormal&quot;&gt;&lt;font face=&quot;Consolas&quot;&gt;&lt;span style=&quot;font-size: 11px;&quot;&gt;கதாநாயகன்&lt;/span&gt;&lt;/font&gt;&lt;br&gt;&lt;/p&gt;" style="text;html=1;align=center;verticalAlign=middle;whiteSpace=wrap;rounded=0;" vertex="1" parent="jRAjvxgsXT9Yqj5ldLVh-46">
          <mxGeometry x="132" y="50" width="60" height="30" as="geometry" />
        </mxCell>
        <mxCell id="jRAjvxgsXT9Yqj5ldLVh-48" value="" style="group" connectable="0" vertex="1" parent="1">
          <mxGeometry x="460" y="512" width="216" height="110" as="geometry" />
        </mxCell>
        <mxCell id="jRAjvxgsXT9Yqj5ldLVh-50" value="&lt;p class=&quot;MsoNormal&quot;&gt;&lt;font face=&quot;Consolas&quot;&gt;&lt;span style=&quot;font-size: 11px;&quot;&gt;கலைஞர்கள்&lt;/span&gt;&lt;/font&gt;&lt;br&gt;&lt;/p&gt;" style="text;html=1;align=center;verticalAlign=middle;whiteSpace=wrap;rounded=0;" vertex="1" parent="jRAjvxgsXT9Yqj5ldLVh-48">
          <mxGeometry x="66" y="74" width="60" height="30" as="geometry" />
        </mxCell>
        <mxCell id="jRAjvxgsXT9Yqj5ldLVh-51" value="&lt;b&gt;Predictions for the mask&lt;/b&gt;" style="text;html=1;align=center;verticalAlign=middle;whiteSpace=wrap;rounded=0;" vertex="1" parent="jRAjvxgsXT9Yqj5ldLVh-48">
          <mxGeometry x="23.5" width="147" height="30" as="geometry" />
        </mxCell>
        <mxCell id="jRAjvxgsXT9Yqj5ldLVh-52" value="&lt;p class=&quot;MsoNormal&quot;&gt;&lt;font face=&quot;Consolas&quot;&gt;&lt;span style=&quot;font-size: 11px;&quot;&gt;படங்கள்&lt;/span&gt;&lt;/font&gt;&lt;br&gt;&lt;/p&gt;" style="text;html=1;align=center;verticalAlign=middle;whiteSpace=wrap;rounded=0;" vertex="1" parent="jRAjvxgsXT9Yqj5ldLVh-48">
          <mxGeometry x="19" y="25" width="60" height="30" as="geometry" />
        </mxCell>
        <mxCell id="jRAjvxgsXT9Yqj5ldLVh-53" value="&lt;p class=&quot;MsoNormal&quot;&gt;&lt;font face=&quot;Consolas&quot;&gt;&lt;span style=&quot;font-size: 11px;&quot;&gt;பெண்கள்&lt;/span&gt;&lt;/font&gt;&lt;br&gt;&lt;/p&gt;" style="text;html=1;align=center;verticalAlign=middle;whiteSpace=wrap;rounded=0;" vertex="1" parent="jRAjvxgsXT9Yqj5ldLVh-48">
          <mxGeometry x="125" y="25" width="60" height="30" as="geometry" />
        </mxCell>
        <mxCell id="jRAjvxgsXT9Yqj5ldLVh-54" value="&lt;p class=&quot;MsoNormal&quot;&gt;&lt;font face=&quot;Consolas&quot;&gt;&lt;span style=&quot;font-size: 11px;&quot;&gt;பேர்&lt;/span&gt;&lt;/font&gt;&lt;br&gt;&lt;/p&gt;" style="text;html=1;align=center;verticalAlign=middle;whiteSpace=wrap;rounded=0;" vertex="1" parent="jRAjvxgsXT9Yqj5ldLVh-48">
          <mxGeometry x="19" y="50" width="60" height="30" as="geometry" />
        </mxCell>
        <mxCell id="jRAjvxgsXT9Yqj5ldLVh-55" value="&lt;p class=&quot;MsoNormal&quot;&gt;&lt;font face=&quot;Consolas&quot;&gt;&lt;span style=&quot;font-size: 11px;&quot;&gt;படத்தில்&lt;/span&gt;&lt;/font&gt;&lt;br&gt;&lt;/p&gt;" style="text;html=1;align=center;verticalAlign=middle;whiteSpace=wrap;rounded=0;" vertex="1" parent="jRAjvxgsXT9Yqj5ldLVh-48">
          <mxGeometry x="125" y="50" width="60" height="30" as="geometry" />
        </mxCell>
        <mxCell id="jRAjvxgsXT9Yqj5ldLVh-47" style="edgeStyle=orthogonalEdgeStyle;rounded=0;orthogonalLoop=1;jettySize=auto;html=1;entryX=0.5;entryY=0;entryDx=0;entryDy=0;" edge="1" parent="1" source="jRAjvxgsXT9Yqj5ldLVh-31" target="jRAjvxgsXT9Yqj5ldLVh-37">
          <mxGeometry relative="1" as="geometry" />
        </mxCell>
        <mxCell id="jRAjvxgsXT9Yqj5ldLVh-56" style="edgeStyle=orthogonalEdgeStyle;rounded=0;orthogonalLoop=1;jettySize=auto;html=1;exitX=0.5;exitY=1;exitDx=0;exitDy=0;entryX=0.5;entryY=0;entryDx=0;entryDy=0;" edge="1" parent="1">
          <mxGeometry relative="1" as="geometry">
            <mxPoint x="553" y="480" as="sourcePoint" />
            <mxPoint x="561" y="506" as="targetPoint" />
          </mxGeometry>
        </mxCell>
        <mxCell id="jRAjvxgsXT9Yqj5ldLVh-66" value="" style="group" connectable="0" vertex="1" parent="1">
          <mxGeometry x="257" y="663" width="330" height="180" as="geometry" />
        </mxCell>
        <mxCell id="jRAjvxgsXT9Yqj5ldLVh-67" value="" style="rounded=1;whiteSpace=wrap;html=1;fillColor=none;strokeColor=#3333FF;strokeWidth=4;" vertex="1" parent="jRAjvxgsXT9Yqj5ldLVh-66">
          <mxGeometry x="5" width="319.00000000000006" height="180" as="geometry" />
        </mxCell>
        <mxCell id="jRAjvxgsXT9Yqj5ldLVh-69" value="&lt;b&gt;Cosine Similarity&amp;nbsp; -&amp;nbsp;&amp;nbsp;&lt;/b&gt;&lt;b style=&quot;background-color: initial;&quot;&gt;5 closest similarities&lt;/b&gt;" style="text;html=1;align=center;verticalAlign=middle;whiteSpace=wrap;rounded=0;" vertex="1" parent="jRAjvxgsXT9Yqj5ldLVh-66">
          <mxGeometry x="28.699000000000005" y="-8" width="279.301" height="49.08857142857143" as="geometry" />
        </mxCell>
        <mxCell id="jRAjvxgsXT9Yqj5ldLVh-70" value="&lt;p style=&quot;font-size: 13px;&quot; class=&quot;MsoNormal&quot;&gt;&lt;font style=&quot;font-size: 13px;&quot;&gt;&lt;span style=&quot;font-family: Consolas;&quot;&gt;கதாநாயகிகள்&amp;nbsp;&lt;/span&gt;&lt;span style=&quot;font-family: Consolas; background-color: initial;&quot;&gt;&amp;nbsp; &amp;nbsp;-&amp;nbsp; &amp;nbsp; &amp;nbsp;0.57&lt;/span&gt;&lt;br&gt;&lt;/font&gt;&lt;/p&gt;&lt;p style=&quot;font-size: 13px;&quot; class=&quot;MsoNormal&quot;&gt;&lt;font style=&quot;font-size: 13px;&quot;&gt;&lt;span style=&quot;background-color: initial; font-family: Consolas;&quot;&gt;கதாநாயகர்கள்&amp;nbsp; &amp;nbsp;&lt;/span&gt;&lt;span style=&quot;background-color: initial; font-family: Consolas;&quot;&gt;-&amp;nbsp; &amp;nbsp; &amp;nbsp;0.50&lt;/span&gt;&lt;span style=&quot;font-family: Consolas; background-color: initial;&quot;&gt;&lt;br&gt;&lt;/span&gt;&lt;/font&gt;&lt;/p&gt;&lt;p style=&quot;font-size: 13px;&quot; class=&quot;MsoNormal&quot;&gt;&lt;font style=&quot;font-size: 13px;&quot;&gt;&lt;span style=&quot;font-family: Consolas; background-color: initial;&quot;&gt;கதாநாயகன்&lt;/span&gt;&lt;span style=&quot;background-color: initial; font-family: Consolas;&quot;&gt;&amp;nbsp; &amp;nbsp; &amp;nbsp;-&amp;nbsp; &amp;nbsp; &amp;nbsp;0.43&lt;/span&gt;&lt;span style=&quot;font-family: Consolas;&quot;&gt;&lt;br&gt;&lt;/span&gt;&lt;/font&gt;&lt;/p&gt;&lt;p style=&quot;font-size: 13px;&quot; class=&quot;MsoNormal&quot;&gt;&lt;font style=&quot;font-size: 13px;&quot;&gt;&lt;span style=&quot;font-family: Consolas; background-color: initial;&quot;&gt;கதாநாயகர்&lt;/span&gt;&lt;span style=&quot;background-color: initial; font-family: Consolas;&quot;&gt;&amp;nbsp; &amp;nbsp; &amp;nbsp; -&amp;nbsp; &amp;nbsp; &amp;nbsp;0.41&lt;/span&gt;&lt;/font&gt;&lt;/p&gt;&lt;p style=&quot;font-size: 13px;&quot; class=&quot;MsoNormal&quot;&gt;&lt;font style=&quot;font-size: 13px;&quot;&gt;&lt;span style=&quot;font-family: Consolas; background-color: initial;&quot;&gt;கோநாய்கள்&lt;/span&gt;&lt;span style=&quot;background-color: initial; font-family: Consolas;&quot;&gt;&amp;nbsp; &amp;nbsp; &amp;nbsp; -&amp;nbsp; &amp;nbsp; &amp;nbsp;0.26&lt;/span&gt;&lt;span style=&quot;background-color: initial; font-family: Consolas;&quot;&gt;&lt;br&gt;&lt;/span&gt;&lt;/font&gt;&lt;/p&gt;&lt;p style=&quot;font-size: 13px;&quot; class=&quot;MsoNormal&quot;&gt;&lt;span style=&quot;background-color: initial; font-family: Consolas;&quot;&gt;&lt;br&gt;&lt;/span&gt;&lt;/p&gt;" style="text;html=1;align=center;verticalAlign=middle;whiteSpace=wrap;rounded=0;" vertex="1" parent="jRAjvxgsXT9Yqj5ldLVh-66">
          <mxGeometry x="7.996999999999998" y="96.99714285714283" width="300.15700000000004" height="49.08857142857143" as="geometry" />
        </mxCell>
        <mxCell id="jRAjvxgsXT9Yqj5ldLVh-75" style="edgeStyle=orthogonalEdgeStyle;rounded=0;orthogonalLoop=1;jettySize=auto;html=1;entryX=0.123;entryY=0.102;entryDx=0;entryDy=0;entryPerimeter=0;" edge="1" parent="1" source="jRAjvxgsXT9Yqj5ldLVh-37" target="jRAjvxgsXT9Yqj5ldLVh-69">
          <mxGeometry relative="1" as="geometry" />
        </mxCell>
        <mxCell id="jRAjvxgsXT9Yqj5ldLVh-78" style="edgeStyle=orthogonalEdgeStyle;rounded=0;orthogonalLoop=1;jettySize=auto;html=1;entryX=0.839;entryY=0.102;entryDx=0;entryDy=0;entryPerimeter=0;" edge="1" parent="1" source="jRAjvxgsXT9Yqj5ldLVh-49" target="jRAjvxgsXT9Yqj5ldLVh-69">
          <mxGeometry relative="1" as="geometry" />
        </mxCell>
        <mxCell id="jRAjvxgsXT9Yqj5ldLVh-79" value="&lt;div style=&quot;&quot;&gt;&lt;font style=&quot;font-size: 15px;&quot;&gt;&lt;b&gt;Error rectified output&lt;/b&gt;&lt;/font&gt;&lt;/div&gt;&lt;div style=&quot;&quot;&gt;&lt;font style=&quot;font-size: 6px;&quot;&gt;&lt;b&gt;&lt;br&gt;&lt;/b&gt;&lt;/font&gt;&lt;/div&gt;&lt;div style=&quot;font-size: 15px;&quot;&gt;&lt;font style=&quot;font-size: 15px;&quot;&gt;எனக்கு ஜோடியாக இரண்டு &lt;font color=&quot;#0066cc&quot;&gt;கதாநாயகிகள்&lt;/font&gt; நடிக்கிறார்கள்&lt;/font&gt;&lt;/div&gt;" style="text;html=1;align=center;verticalAlign=middle;whiteSpace=wrap;rounded=0;" vertex="1" parent="1">
          <mxGeometry x="292" y="877" width="260" height="70" as="geometry" />
        </mxCell>
        <mxCell id="jRAjvxgsXT9Yqj5ldLVh-80" value="" style="edgeStyle=orthogonalEdgeStyle;rounded=0;orthogonalLoop=1;jettySize=auto;html=1;" edge="1" parent="1" source="jRAjvxgsXT9Yqj5ldLVh-67" target="jRAjvxgsXT9Yqj5ldLVh-79">
          <mxGeometry relative="1" as="geometry" />
        </mxCell>
      </root>
    </mxGraphModel>
  </diagram>
</mxfile>
